<svg viewBox="0 0 256 256" xmlns="http://www.w3.org/2000/svg"><g fill="none" fill-rule="evenodd"><path d="M107.7 141.3V58.3C100.4 52.2 95.8 43.1 95.8 32.95 95.8 14.75 110.6 0 128.8 0 143.6 0 156.2 9.86 160.3 23.4 166.2 19.1 177.4 12.45 192.5 12.45 213.3 12.45 251.5 19.1 251.5 92.2 251.5 165.3 216.1 176.3 191.9 176.3 170.2 176.3 156.3 164.4 148.7 159V196.9C156.6 202.9 161.7 212.4 161.7 223.1 161.7 241.2 147 256 128.8 256 110.6 256 95.8 241.2 95.8 223.1 95.8 212.9 100.4 203.8 107.7 197.7V178.9C104.6 175.5 99.6 171.2 92 168.3 81.5 164.4 72.7 167.2 56.4 160.8 41 154.8 25.2 141.4 23.53 114.9 12 109.8 4 98.2 4 84.8 4 66.6 18.75 51.85 36.95 51.85 55.1 51.85 69.89 66.6 69.89 84.8 69.89 96.6 63.7 107 54.3 112.8 55.5 126.6 66.5 136 85 136 95.2 136 102.7 138.7 107.7 141.3M148.7 61.67V131.8C154.1 136.5 163.6 143.2 178.9 143.2 195.7 143.2 211.7 129.6 211.7 94.2 211.7 58.71 192.8 44.62 177 44.62 163.4 44.62 155.9 53.6 148.7 61.67M36.95 100.5C45.6 100.5 52.61 93.4 52.61 84.8 52.61 76.1 45.6 69.1 36.95 69.1 28.3 69.1 21.28 76.1 21.28 84.8 21.28 93.4 28.3 100.5 36.95 100.5M128.8 238.7C137.4 238.7 144.4 231.7 144.4 223.1 144.4 214.4 137.4 207.4 128.8 207.4 120.1 207.4 113.1 214.4 113.1 223.1 113.1 231.7 120.1 238.7 128.8 238.7M128.8 48.61C137.4 48.61 144.4 41.6 144.4 32.95 144.4 24.3 137.4 17.28 128.8 17.28 120.1 17.28 113.1 24.3 113.1 32.95 113.1 41.6 120.1 48.61 128.8 48.61" fill="#2f749f"/></g></svg>